<svg xmlns="http://www.w3.org/2000/svg" width="128" height="128" viewBox="0 0 64 64" fill="none" role="img" aria-label="Footwear icon">
  <circle cx="32" cy="32" r="28" fill="#4B1D79"/>
  <circle cx="32" cy="32" r="27" stroke="rgba(255,255,255,0.22)" stroke-width="1"/>
  <g stroke="#FFFFFF" stroke-width="2.35" stroke-linecap="round" stroke-linejoin="round">

    <path d="M16 40 H47 C49 40 50 38.5 49 36.8 C47.5 34.2 43.5 34 39.5 31.5"/>
    <path d="M17 39 C22.5 35 25.5 30 28 22"/>
    <path d="M28 22 C31 27 35 30.5 40 33"/>
    <path d="M22 35 C27 36.5 35 36.8 45 36.4"/>
    <path d="M25 31 L29 33.5"/>
    <path d="M28 27.5 L33 31"/>
    <path d="M37 32.5 L43 27"/>
    <path d="M18 42 H48"/>

  </g>
</svg>
