<svg xmlns="http://www.w3.org/2000/svg" width="128" height="128" viewBox="0 0 64 64" fill="none" role="img" aria-label="PVC Hose Pipe icon">
  <circle cx="32" cy="32" r="28" fill="#FF5B16"/>
  <circle cx="32" cy="32" r="27" stroke="rgba(255,255,255,0.22)" stroke-width="1"/>
  <g stroke="#FFFFFF" stroke-width="2.35" stroke-linecap="round" stroke-linejoin="round">

    <circle cx="24" cy="24" r="6"/>
    <circle cx="40" cy="24" r="6"/>
    <circle cx="24" cy="40" r="6"/>
    <circle cx="40" cy="40" r="6"/>
    <circle cx="32" cy="32" r="6.5"/>
    <path d="M24 30 C28 30 30 30 32 32"/>
    <path d="M40 30 C36 30 34 30 32 32"/>
    <path d="M24 34 C28 34 30 34 32 32"/>
    <path d="M40 34 C36 34 34 34 32 32"/>
    <path d="M32 25 V39"/>
    <path d="M25 32 H39"/>

  </g>
</svg>
