<svg xmlns="http://www.w3.org/2000/svg" width="128" height="128" viewBox="0 0 64 64" fill="none" role="img" aria-label="Wire and Cables icon">
  <circle cx="32" cy="32" r="28" fill="#4B1D79"/>
  <circle cx="32" cy="32" r="27" stroke="rgba(255,255,255,0.22)" stroke-width="1"/>
  <g stroke="#FFFFFF" stroke-width="2.35" stroke-linecap="round" stroke-linejoin="round">

    <path d="M20 18 C26 21 28 26 28 32 C28 38 26 43 20 46"/>
    <path d="M44 18 C38 21 36 26 36 32 C36 38 38 43 44 46"/>
    <path d="M22 20 C18 22 16 26 18 30 C20 34 25 35 31 32"/>
    <path d="M42 20 C46 22 48 26 46 30 C44 34 39 35 33 32"/>
    <path d="M22 44 C18 42 16 38 18 34 C20 30 25 29 31 32"/>
    <path d="M42 44 C46 42 48 38 46 34 C44 30 39 29 33 32"/>
    <path d="M32 18 V46"/>
    <path d="M27 24 H37"/>
    <path d="M27 40 H37"/>
    <circle cx="32" cy="32" r="3.1"/>

  </g>
</svg>
