<svg xmlns="http://www.w3.org/2000/svg" width="64" height="64" viewBox="0 0 64 64">
  <title>ISO Certification</title>
  <g fill="none" stroke="#143394" stroke-width="1.8" stroke-linecap="round" stroke-linejoin="round">
    <path d="M18.5 42.5C12.5 39.4 9 34.2 9 28.8c0-4.6 2.4-8.8 6.4-12"/>
    <path d="M45.5 42.5C51.5 39.4 55 34.2 55 28.8c0-4.6-2.4-8.8-6.4-12"/>
    <path d="M17 39.7l-5.2-1.1M15.3 35.5l-5.1-2M14.7 31l-4.4-2.9M15.6 26.5l-3.6-3.7M17.8 22.4l-2.5-4.3"/>
    <path d="M47 39.7l5.2-1.1M48.7 35.5l5.1-2M49.3 31l4.4-2.9M48.4 26.5l3.6-3.7M46.2 22.4l2.5-4.3"/>
    <path d="M21.2 15.8c3.1-2.1 6.8-3.3 10.8-3.3s7.7 1.2 10.8 3.3"/>
    <ellipse cx="32" cy="15.8" rx="9.9" ry="4.7"/>
    <path d="M22.3 15.8h19.4M32 11.1v9.4M27.6 11.8c-1.8 2.3-1.8 5.7 0 8M36.4 11.8c1.8 2.3 1.8 5.7 0 8"/>
    <path d="M21.3 45.5c3.1 1.8 6.8 2.7 10.7 2.7s7.6-.9 10.7-2.7"/>
  </g>
  <text x="32" y="37.7" text-anchor="middle" font-family="Arial, Helvetica, sans-serif" font-size="18" font-weight="900" fill="#143394" letter-spacing="-1">ISO</text>
  <text x="32" y="44" text-anchor="middle" font-family="Arial, Helvetica, sans-serif" font-size="3.4" font-weight="700" fill="#143394">CERTIFIED</text>
</svg>