<svg xmlns="http://www.w3.org/2000/svg" width="64" height="64" viewBox="0 0 64 64">
  <title>Eco Leaf</title>
  <g fill="none" stroke="#54A732" stroke-width="2.7" stroke-linecap="round" stroke-linejoin="round">
    <path d="M46.7 48.1A22 22 0 1 1 51.5 22"/>
    <path d="M47.6 47.9c3.2-1.4 5.7-4 7.1-7.1-3.2-1.1-6.8-.3-9.2 2.1-1.6 1.6-2.5 3.7-2.6 5.8 1.6.2 3.2-.1 4.7-.8z"/>
    <path d="M31.7 48V34.7"/>
    <path d="M31.7 40.1c-5.9-.4-10.4-4.2-11.9-10 5.8-.8 11.3 1.6 14.4 6.5"/>
    <path d="M31.8 35.4c1.4-5.3 5.3-8.9 10.7-10.2.5 5.7-2.2 10.9-7.2 13.5"/>
    <path d="M24 31.7c3.3 1.2 5.8 3.1 7.7 6.1M39.8 29.3c-3 1.7-5.2 4-6.7 7.2"/>
  </g>
</svg>