<?xml version="1.0" encoding="UTF-8"?>
<svg width="64" height="64" viewBox="0 0 45 44" fill="none" xmlns="http://www.w3.org/2000/svg" role="img" aria-label="Advanced Manufacturing Robotic Arm">
  <title>Advanced Manufacturing Robotic Arm</title>
  <path d="M 25.00 41.50 L 2.00 41.50 L 1.50 41.00 L 1.50 40.00 L 3.50 38.00 L 2.50 37.00 L 3.50 36.00 L 3.50 34.00 L 5.00 32.50 L 6.00 32.50 L 6.50 32.00 L 6.50 23.00 L 7.50 22.00 L 7.50 21.00 L 9.50 19.00 L 7.50 17.00 L 7.50 16.00 L 6.50 15.00 L 6.50 12.00 L 8.50 10.00 L 8.50 9.00 L 10.00 7.50 L 11.00 7.50 L 12.00 6.50 L 15.00 6.50 L 16.00 7.50 L 17.00 7.50 L 18.00 6.50 L 20.00 6.50 L 21.00 5.50 L 24.00 5.50 L 25.00 4.50 L 27.00 4.50 L 28.00 3.50 L 29.00 3.50 L 30.00 2.50 L 31.00 2.50 L 32.00 1.50 L 34.00 1.50 L 35.00 0.50 L 36.00 0.50 L 37.00 1.50 L 38.00 1.50 L 42.50 6.00 L 42.50 7.00 L 39.50 10.00 L 39.50 11.00 L 40.50 12.00 L 40.50 13.00 L 41.50 14.00 L 41.50 16.00 L 42.50 17.00 L 42.50 19.00 L 43.50 20.00 L 43.50 22.00 L 43.00 22.50 L 42.00 22.50 L 41.00 21.50 L 39.00 23.50 L 38.00 23.50 L 37.00 22.50 L 35.00 22.50 L 34.50 22.00 L 34.50 12.00 L 34.00 11.50 L 32.00 11.50 L 31.00 10.50 L 30.00 10.50 L 29.00 9.50 L 27.00 11.50 L 26.00 11.50 L 25.00 12.50 L 23.00 12.50 L 22.00 13.50 L 21.00 13.50 L 20.50 14.00 L 20.50 15.00 L 19.50 16.00 L 19.50 17.00 L 17.50 19.00 L 17.50 20.00 L 20.50 23.00 L 20.50 32.00 L 21.00 32.50 L 23.00 32.50 L 24.50 34.00 L 24.50 38.00 L 26.50 40.00 L 25.00 41.50 Z
      M 36.50 10.00 L 40.50 6.00 L 38.00 3.50 L 33.00 3.50 L 32.00 4.50 L 31.00 4.50 L 30.50 5.00 L 30.50 8.00 L 32.00 9.50 L 34.00 9.50 L 35.00 10.50 L 36.00 10.50 L 36.50 10.00 Z
      M 22.50 11.00 L 23.00 10.50 L 25.00 10.50 L 28.50 7.00 L 28.00 6.50 L 24.00 6.50 L 23.00 7.50 L 21.00 7.50 L 20.00 8.50 L 19.00 8.50 L 18.50 9.00 L 18.50 10.00 L 20.00 11.50 L 22.00 11.50 L 22.50 11.00 Z
      M 14.50 18.00 L 16.50 16.00 L 16.00 15.50 L 15.00 15.50 L 14.50 15.00 L 16.00 13.50 L 16.50 14.00 L 16.50 15.00 L 17.00 15.50 L 17.50 15.00 L 17.50 11.00 L 16.00 9.50 L 15.00 9.50 L 14.00 8.50 L 13.00 9.50 L 11.00 9.50 L 9.50 11.00 L 9.50 16.00 L 11.00 17.50 L 12.00 17.50 L 13.00 18.50 L 14.00 18.50 L 14.50 18.00 Z
      M 37.50 19.00 L 38.00 18.50 L 40.00 18.50 L 40.50 18.00 L 40.50 16.00 L 39.50 15.00 L 39.50 14.00 L 38.50 13.00 L 38.50 12.00 L 38.00 11.50 L 37.00 11.50 L 36.50 12.00 L 36.50 19.00 L 37.00 19.50 L 37.50 19.00 Z
      M 13.00 16.50 L 12.00 16.50 L 10.50 15.00 L 11.00 14.50 L 12.00 14.50 L 13.50 16.00 L 13.00 16.50 Z
      M 39.50 20.00 L 39.00 19.50 L 38.00 19.50 L 37.50 20.00 L 38.00 20.50 L 39.00 20.50 L 39.50 20.00 Z
      M 17.50 32.00 L 18.50 31.00 L 18.50 25.00 L 17.50 24.00 L 17.50 23.00 L 15.00 20.50 L 11.00 20.50 L 9.50 22.00 L 9.50 23.00 L 8.50 24.00 L 8.50 32.00 L 9.00 32.50 L 17.00 32.50 L 17.50 32.00 Z
      M 15.00 30.50 L 12.00 30.50 L 11.50 30.00 L 11.50 28.00 L 13.00 26.50 L 14.00 26.50 L 15.50 28.00 L 15.50 30.00 L 15.00 30.50 Z
      M 23.50 38.00 L 22.50 37.00 L 22.50 36.00 L 21.00 34.50 L 7.00 34.50 L 5.50 36.00 L 5.50 37.00 L 4.50 38.00 L 5.00 38.50 L 23.00 38.50 L 23.50 38.00 Z" fill="#FFFFFF" fill-rule="evenodd" clip-rule="evenodd"/>
</svg>
