<?xml version="1.0" encoding="UTF-8"?>
<svg width="64" height="64" viewBox="0 0 44 42" fill="none" xmlns="http://www.w3.org/2000/svg" role="img" aria-label="Consistent Performance Gear">
  <title>Consistent Performance Gear</title>
  <path d="M 25.00 39.50 L 19.00 39.50 L 17.50 38.00 L 17.50 36.00 L 16.00 34.50 L 15.00 34.50 L 14.00 35.50 L 13.00 35.50 L 12.00 36.50 L 11.00 35.50 L 10.00 35.50 L 5.50 31.00 L 5.50 29.00 L 6.50 28.00 L 6.50 26.00 L 5.00 24.50 L 4.00 24.50 L 1.50 22.00 L 1.50 19.00 L 2.50 18.00 L 2.50 17.00 L 4.00 15.50 L 5.00 15.50 L 6.00 14.50 L 7.00 14.50 L 7.50 14.00 L 7.50 13.00 L 6.50 12.00 L 6.50 11.00 L 5.50 10.00 L 5.50 9.00 L 7.50 7.00 L 7.50 6.00 L 8.00 5.50 L 9.00 5.50 L 11.00 3.50 L 13.00 3.50 L 14.00 4.50 L 16.00 4.50 L 17.50 3.00 L 17.50 2.00 L 19.00 0.50 L 26.00 0.50 L 26.50 1.00 L 26.50 2.00 L 27.50 3.00 L 27.50 4.00 L 29.00 5.50 L 30.00 5.50 L 31.00 4.50 L 32.00 4.50 L 33.00 3.50 L 34.00 4.50 L 35.00 4.50 L 37.50 7.00 L 37.50 8.00 L 38.50 9.00 L 38.50 11.00 L 37.50 12.00 L 37.50 14.00 L 39.00 15.50 L 41.00 15.50 L 42.50 17.00 L 42.50 22.00 L 41.50 23.00 L 41.50 24.00 L 41.00 24.50 L 39.00 24.50 L 37.50 26.00 L 37.50 28.00 L 38.50 29.00 L 38.50 31.00 L 34.00 35.50 L 31.00 35.50 L 30.00 34.50 L 29.00 34.50 L 27.50 36.00 L 27.50 37.00 L 25.00 39.50 Z
      M 24.50 37.00 L 25.50 36.00 L 25.50 34.00 L 27.00 32.50 L 30.00 32.50 L 31.00 33.50 L 33.00 33.50 L 35.50 31.00 L 35.50 28.00 L 34.50 27.00 L 34.50 26.00 L 35.50 25.00 L 35.50 24.00 L 37.00 22.50 L 39.00 22.50 L 39.50 22.00 L 39.50 18.00 L 39.00 17.50 L 37.00 17.50 L 35.50 16.00 L 35.50 15.00 L 34.50 14.00 L 34.50 12.00 L 35.50 11.00 L 35.50 8.00 L 35.00 7.50 L 34.00 7.50 L 33.00 6.50 L 32.00 7.50 L 31.00 7.50 L 30.00 8.50 L 29.00 7.50 L 27.00 7.50 L 25.50 6.00 L 25.50 5.00 L 24.50 4.00 L 24.50 3.00 L 24.00 2.50 L 21.00 2.50 L 19.50 4.00 L 19.50 5.00 L 17.00 7.50 L 13.00 7.50 L 12.00 6.50 L 10.00 8.50 L 9.00 8.50 L 8.50 9.00 L 8.50 10.00 L 9.50 11.00 L 9.50 15.00 L 7.00 17.50 L 5.00 17.50 L 4.50 18.00 L 4.50 21.00 L 6.00 22.50 L 7.00 22.50 L 9.50 25.00 L 9.50 28.00 L 8.50 29.00 L 8.50 30.00 L 9.50 31.00 L 9.50 32.00 L 11.00 33.50 L 13.00 33.50 L 14.00 32.50 L 17.00 32.50 L 19.50 35.00 L 19.50 36.00 L 21.00 37.50 L 24.00 37.50 L 24.50 37.00 Z
      M 24.00 30.50 L 21.00 30.50 L 20.00 29.50 L 18.00 29.50 L 17.00 28.50 L 16.00 28.50 L 12.50 25.00 L 12.50 23.00 L 11.50 22.00 L 11.50 17.00 L 13.50 15.00 L 13.50 14.00 L 17.00 10.50 L 19.00 10.50 L 20.00 9.50 L 24.00 9.50 L 25.00 10.50 L 26.00 10.50 L 27.00 11.50 L 28.00 11.50 L 31.50 15.00 L 31.50 17.00 L 32.50 18.00 L 32.50 22.00 L 31.50 23.00 L 31.50 25.00 L 28.00 28.50 L 27.00 28.50 L 26.00 29.50 L 25.00 29.50 L 24.00 30.50 Z
      M 23.50 28.00 L 24.00 27.50 L 26.00 27.50 L 29.50 24.00 L 29.50 22.00 L 30.50 21.00 L 29.50 20.00 L 29.50 16.00 L 27.50 14.00 L 26.00 12.50 L 24.00 12.50 L 23.00 11.50 L 21.00 11.50 L 20.00 12.50 L 19.00 12.50 L 18.00 13.50 L 17.00 13.50 L 15.50 15.00 L 15.50 16.00 L 14.50 17.00 L 14.50 24.00 L 18.00 27.50 L 20.00 27.50 L 21.00 28.50 L 23.00 28.50 L 23.50 28.00 Z
      M 23.00 22.50 L 21.00 22.50 L 19.50 21.00 L 19.50 18.00 L 20.00 17.50 L 21.00 17.50 L 22.00 16.50 L 23.00 16.50 L 23.50 17.00 L 23.50 18.00 L 24.50 19.00 L 24.50 21.00 L 23.00 22.50 Z" fill="#FFFFFF" fill-rule="evenodd" clip-rule="evenodd"/>
</svg>
