<?xml version="1.0" encoding="UTF-8"?>
<svg width="64" height="64" viewBox="0 0 44 42" fill="none" xmlns="http://www.w3.org/2000/svg" role="img" aria-label="Iso 9001 Certified Company">
  <title>Iso 9001 Certified Company</title>
  <path d="M 8.00 10.50 L 7.50 10.00 L 7.50 9.00 L 13.00 3.50 L 15.00 3.50 L 16.00 2.50 L 17.00 2.50 L 18.00 1.50 L 21.00 1.50 L 21.50 2.00 L 21.50 3.00 L 22.00 3.50 L 23.00 2.50 L 24.00 2.50 L 25.00 1.50 L 29.00 1.50 L 30.50 3.00 L 30.00 3.50 L 28.00 3.50 L 27.50 4.00 L 27.50 5.00 L 27.00 5.50 L 26.00 5.50 L 25.00 4.50 L 24.00 4.50 L 21.00 4.50 L 20.00 5.50 L 18.00 5.50 L 17.50 6.00 L 17.50 7.00 L 18.00 7.50 L 21.00 7.50 L 22.00 6.50 L 24.00 6.50 L 24.50 7.00 L 24.50 8.00 L 24.00 8.50 L 21.00 8.50 L 20.00 9.50 L 18.00 9.50 L 17.50 9.00 L 17.50 8.00 L 17.00 7.50 L 15.00 7.50 L 14.00 8.50 L 13.50 8.00 L 13.50 6.00 L 13.00 5.50 L 8.00 10.50 Z
      M 26.50 3.00 L 26.00 2.50 L 25.00 2.50 L 24.50 3.00 L 25.00 3.50 L 26.00 3.50 L 26.50 3.00 Z
      M 18.50 4.00 L 18.00 3.50 L 17.00 3.50 L 16.50 4.00 L 17.00 4.50 L 18.00 4.50 L 18.50 4.00 Z
      M 38.00 9.50 L 35.00 6.50 L 34.00 6.50 L 33.00 5.50 L 32.50 6.00 L 32.50 7.00 L 33.50 8.00 L 33.00 8.50 L 32.00 8.50 L 31.00 7.50 L 30.00 7.50 L 28.00 9.50 L 27.00 9.50 L 26.50 9.00 L 26.50 7.00 L 27.00 6.50 L 28.00 6.50 L 29.00 7.50 L 29.50 7.00 L 29.50 5.00 L 30.00 4.50 L 31.00 4.50 L 32.00 3.50 L 33.00 3.50 L 34.00 4.50 L 35.00 4.50 L 38.50 8.00 L 38.50 9.00 L 38.00 9.50 Z
      M 16.50 5.00 L 16.00 4.50 L 15.00 4.50 L 14.50 5.00 L 15.00 5.50 L 16.00 5.50 L 16.50 5.00 Z
      M 32.50 5.00 L 32.00 4.50 L 31.50 5.00 L 32.00 5.50 L 32.50 5.00 Z
      M 40.00 29.50 L 34.00 29.50 L 33.00 28.50 L 32.00 28.50 L 30.50 27.00 L 30.50 26.00 L 29.00 24.50 L 27.50 26.00 L 27.50 27.00 L 26.00 28.50 L 25.00 28.50 L 24.00 29.50 L 20.00 29.50 L 18.00 27.50 L 16.00 29.50 L 15.00 29.50 L 13.00 27.50 L 11.00 29.50 L 3.00 29.50 L 1.50 28.00 L 1.50 26.00 L 3.00 24.50 L 4.00 24.50 L 4.50 24.00 L 4.50 17.00 L 3.00 15.50 L 2.00 15.50 L 1.50 15.00 L 1.50 12.00 L 2.00 11.50 L 12.00 11.50 L 12.50 12.00 L 12.50 15.00 L 13.00 15.50 L 13.50 15.00 L 13.50 14.00 L 16.00 11.50 L 22.00 11.50 L 23.00 12.50 L 24.00 12.50 L 25.00 11.50 L 27.00 11.50 L 28.50 13.00 L 28.50 14.00 L 27.50 15.00 L 27.50 16.00 L 26.00 17.50 L 25.00 17.50 L 24.00 16.50 L 23.00 16.50 L 22.00 15.50 L 19.00 15.50 L 18.50 16.00 L 18.50 17.00 L 19.00 17.50 L 23.00 17.50 L 24.00 18.50 L 25.00 18.50 L 28.00 21.50 L 28.50 21.00 L 28.50 18.00 L 29.50 17.00 L 29.50 16.00 L 30.50 15.00 L 30.50 14.00 L 31.00 13.50 L 32.00 13.50 L 34.00 11.50 L 41.00 11.50 L 43.50 14.00 L 43.50 27.00 L 42.00 28.50 L 41.00 28.50 L 40.00 29.50 Z
      M 22.50 25.00 L 22.50 24.00 L 21.00 22.50 L 18.00 22.50 L 17.00 21.50 L 16.00 21.50 L 13.50 19.00 L 13.50 18.00 L 12.50 17.00 L 12.50 16.00 L 12.00 15.50 L 11.00 15.50 L 10.50 16.00 L 10.50 19.00 L 9.50 20.00 L 10.50 21.00 L 10.50 24.00 L 12.00 25.50 L 13.50 24.00 L 13.50 23.00 L 14.00 22.50 L 16.00 22.50 L 18.00 24.50 L 20.00 24.50 L 21.00 25.50 L 22.00 25.50 L 22.50 25.00 Z
      M 38.50 24.00 L 39.50 23.00 L 39.50 17.00 L 38.00 15.50 L 37.00 15.50 L 34.50 18.00 L 34.50 23.00 L 36.00 24.50 L 38.00 24.50 L 38.50 24.00 Z
      M 29.00 39.50 L 26.00 39.50 L 25.50 39.00 L 26.50 38.00 L 26.50 37.00 L 26.00 36.50 L 25.00 37.50 L 24.00 37.50 L 23.00 36.50 L 22.00 36.50 L 21.50 37.00 L 21.50 39.00 L 21.00 39.50 L 18.00 39.50 L 16.00 37.50 L 15.00 37.50 L 14.00 36.50 L 12.00 36.50 L 8.50 33.00 L 8.50 32.00 L 9.00 31.50 L 13.00 35.50 L 14.00 35.50 L 14.50 35.00 L 13.50 34.00 L 13.50 33.00 L 14.00 32.50 L 16.50 35.00 L 16.50 36.00 L 18.00 37.50 L 19.00 37.50 L 19.50 37.00 L 19.50 36.00 L 18.50 35.00 L 18.50 34.00 L 18.00 33.50 L 17.00 33.50 L 16.50 33.00 L 18.00 31.50 L 20.00 31.50 L 20.50 32.00 L 20.50 35.00 L 21.00 35.50 L 28.00 35.50 L 28.50 35.00 L 28.50 34.00 L 27.00 32.50 L 26.00 32.50 L 25.00 33.50 L 23.00 33.50 L 22.50 33.00 L 22.50 32.00 L 23.00 31.50 L 28.00 31.50 L 29.00 32.50 L 30.00 32.50 L 32.00 30.50 L 33.50 32.00 L 32.50 33.00 L 34.00 34.50 L 35.00 34.50 L 36.50 33.00 L 36.50 32.00 L 38.00 30.50 L 38.50 31.00 L 38.50 32.00 L 37.50 33.00 L 37.50 34.00 L 36.00 35.50 L 35.00 35.50 L 33.00 37.50 L 31.00 37.50 L 29.00 39.50 Z
      M 31.50 36.00 L 31.50 35.00 L 31.00 34.50 L 30.00 35.50 L 29.00 35.50 L 28.50 36.00 L 29.00 36.50 L 31.00 36.50 L 31.50 36.00 Z" fill="#FFFFFF" fill-rule="evenodd" clip-rule="evenodd"/>
</svg>
