<?xml version="1.0" encoding="UTF-8"?>
<svg width="64" height="64" viewBox="0 0 39 44" fill="none" xmlns="http://www.w3.org/2000/svg" role="img" aria-label="Premium Quality Shield">
  <title>Premium Quality Shield</title>
  <path d="M 21.00 41.50 L 18.00 41.50 L 17.00 40.50 L 16.00 40.50 L 15.00 39.50 L 14.00 39.50 L 13.00 38.50 L 12.00 38.50 L 4.50 31.00 L 4.50 30.00 L 3.50 29.00 L 3.50 27.00 L 2.50 26.00 L 2.50 10.00 L 1.50 9.00 L 4.00 6.50 L 11.00 6.50 L 12.00 5.50 L 14.00 5.50 L 16.00 3.50 L 17.00 3.50 L 19.00 1.50 L 20.00 1.50 L 22.00 3.50 L 23.00 3.50 L 24.00 4.50 L 25.00 4.50 L 26.00 5.50 L 27.00 5.50 L 28.00 6.50 L 30.00 6.50 L 31.00 7.50 L 36.00 7.50 L 36.50 8.00 L 36.50 24.00 L 35.50 25.00 L 35.50 28.00 L 34.50 29.00 L 34.50 30.00 L 33.50 31.00 L 33.50 32.00 L 28.00 37.50 L 27.00 37.50 L 25.00 39.50 L 24.00 39.50 L 23.00 40.50 L 22.00 40.50 L 21.00 41.50 Z
      M 20.50 39.00 L 21.00 38.50 L 22.00 38.50 L 24.00 36.50 L 25.00 36.50 L 31.50 30.00 L 31.50 29.00 L 32.50 28.00 L 32.50 27.00 L 33.50 26.00 L 33.50 23.00 L 34.50 22.00 L 34.50 11.00 L 34.00 10.50 L 33.00 10.50 L 32.00 9.50 L 28.00 9.50 L 27.00 8.50 L 25.00 8.50 L 23.00 6.50 L 22.00 6.50 L 20.00 4.50 L 19.00 4.50 L 17.00 6.50 L 16.00 6.50 L 15.00 7.50 L 14.00 7.50 L 13.00 8.50 L 11.00 8.50 L 10.00 9.50 L 5.00 9.50 L 4.50 10.00 L 4.50 24.00 L 5.50 25.00 L 5.50 27.00 L 6.50 28.00 L 6.50 29.00 L 7.50 30.00 L 7.50 31.00 L 13.00 36.50 L 14.00 36.50 L 15.00 37.50 L 16.00 37.50 L 17.00 38.50 L 18.00 38.50 L 19.00 39.50 L 20.00 39.50 L 20.50 39.00 Z
      M 21.00 34.50 L 17.00 34.50 L 15.00 32.50 L 14.00 32.50 L 9.50 28.00 L 9.50 26.00 L 8.50 25.00 L 8.50 14.00 L 9.00 13.50 L 10.00 13.50 L 11.00 12.50 L 13.00 12.50 L 14.00 11.50 L 16.00 11.50 L 17.00 10.50 L 18.00 10.50 L 19.00 9.50 L 20.00 9.50 L 21.00 10.50 L 22.00 10.50 L 23.00 11.50 L 24.00 11.50 L 26.00 13.50 L 28.00 13.50 L 29.50 15.00 L 29.50 17.00 L 29.00 17.50 L 27.00 17.50 L 23.50 21.00 L 23.50 22.00 L 18.00 27.50 L 17.00 27.50 L 12.50 23.00 L 13.00 22.50 L 15.00 22.50 L 17.00 24.50 L 26.50 15.00 L 26.00 14.50 L 25.00 14.50 L 24.00 13.50 L 23.00 13.50 L 22.00 12.50 L 20.00 12.50 L 16.00 12.50 L 15.00 13.50 L 14.00 13.50 L 13.00 14.50 L 11.00 14.50 L 10.50 15.00 L 10.50 24.00 L 11.50 25.00 L 11.50 27.00 L 16.00 31.50 L 17.00 31.50 L 18.00 32.50 L 21.00 32.50 L 23.00 30.50 L 24.00 30.50 L 25.50 29.00 L 25.50 28.00 L 27.50 26.00 L 27.50 25.00 L 29.00 23.50 L 29.50 24.00 L 29.50 26.00 L 28.50 27.00 L 28.50 28.00 L 23.00 33.50 L 22.00 33.50 L 21.00 34.50 Z" fill="#FFFFFF" fill-rule="evenodd" clip-rule="evenodd"/>
</svg>
