<?xml version="1.0" encoding="UTF-8"?>
<svg width="64" height="64" viewBox="0 0 47 36" fill="none" xmlns="http://www.w3.org/2000/svg" role="img" aria-label="Timely Delivery Truck">
  <title>Timely Delivery Truck</title>
  <path d="M 38.00 33.50 L 33.00 33.50 L 31.50 32.00 L 31.50 31.00 L 30.00 29.50 L 20.00 29.50 L 18.50 31.00 L 18.50 32.00 L 17.00 33.50 L 12.00 33.50 L 10.50 32.00 L 10.50 31.00 L 9.00 29.50 L 6.00 29.50 L 5.50 29.00 L 5.50 27.00 L 4.50 26.00 L 4.50 21.00 L 4.00 20.50 L 2.00 20.50 L 1.50 20.00 L 1.50 19.00 L 2.00 18.50 L 13.00 18.50 L 13.50 19.00 L 12.00 20.50 L 8.00 20.50 L 6.50 22.00 L 6.50 25.00 L 8.00 26.50 L 10.00 26.50 L 13.00 23.50 L 16.00 23.50 L 17.00 24.50 L 18.00 24.50 L 18.50 25.00 L 18.50 26.00 L 19.00 26.50 L 20.00 26.50 L 21.00 27.50 L 24.00 27.50 L 25.00 26.50 L 30.00 26.50 L 32.00 24.50 L 33.00 24.50 L 34.00 23.50 L 37.00 23.50 L 38.00 24.50 L 39.00 24.50 L 42.00 27.50 L 42.50 27.00 L 42.50 18.00 L 42.00 17.50 L 34.00 17.50 L 32.50 16.00 L 32.50 13.00 L 34.00 11.50 L 37.00 11.50 L 37.50 11.00 L 37.50 10.00 L 36.00 8.50 L 31.00 8.50 L 30.50 9.00 L 30.50 23.00 L 28.00 25.50 L 27.50 25.00 L 27.50 23.00 L 28.50 22.00 L 28.50 4.00 L 28.00 3.50 L 7.00 3.50 L 6.50 4.00 L 6.50 11.00 L 7.00 11.50 L 8.00 11.50 L 8.50 12.00 L 7.00 13.50 L 0.00 13.50 L 0.00 13.00 L 0.00 12.00 L 0.00 11.50 L 4.00 11.50 L 4.50 11.00 L 4.50 2.00 L 6.00 0.50 L 28.00 0.50 L 29.00 1.50 L 30.00 1.50 L 30.50 2.00 L 30.50 6.00 L 31.00 6.50 L 37.00 6.50 L 40.50 10.00 L 40.50 11.00 L 41.50 12.00 L 41.50 14.00 L 44.50 17.00 L 44.50 28.00 L 43.00 29.50 L 41.00 29.50 L 40.50 30.00 L 40.50 31.00 L 38.00 33.50 Z
      M 15.00 17.50 L 12.00 17.50 L 10.50 16.00 L 11.50 15.00 L 11.50 13.00 L 10.50 12.00 L 12.00 10.50 L 13.00 10.50 L 14.00 9.50 L 16.00 9.50 L 17.00 8.50 L 18.00 8.50 L 19.00 9.50 L 20.00 9.50 L 21.50 11.00 L 21.50 15.00 L 20.00 16.50 L 16.00 16.50 L 15.00 17.50 Z
      M 19.50 13.00 L 19.50 12.00 L 19.00 11.50 L 17.00 11.50 L 16.50 12.00 L 16.50 13.00 L 17.00 13.50 L 19.00 13.50 L 19.50 13.00 Z
      M 39.50 15.00 L 39.50 14.00 L 38.50 13.00 L 38.50 12.00 L 38.00 11.50 L 37.50 12.00 L 37.50 13.00 L 37.00 13.50 L 36.00 13.50 L 35.50 14.00 L 35.50 15.00 L 36.00 15.50 L 39.00 15.50 L 39.50 15.00 Z
      M 15.50 14.00 L 15.50 13.00 L 15.00 12.50 L 14.00 12.50 L 13.50 13.00 L 13.50 14.00 L 14.00 14.50 L 15.00 14.50 L 15.50 14.00 Z
      M 7.00 17.50 L 1.00 17.50 L 0.00 16.00 L 0.00 15.50 L 1.00 15.50 L 2.00 14.50 L 6.00 14.50 L 7.50 16.00 L 7.50 17.00 L 7.00 17.50 Z
      M 16.50 31.00 L 17.50 30.00 L 17.50 28.00 L 15.00 25.50 L 14.00 25.50 L 11.50 28.00 L 11.50 30.00 L 13.00 31.50 L 16.00 31.50 L 16.50 31.00 Z
      M 37.50 31.00 L 38.50 30.00 L 38.50 28.00 L 36.00 25.50 L 35.00 25.50 L 32.50 28.00 L 32.50 29.00 L 33.50 30.00 L 33.50 31.00 L 34.00 31.50 L 37.00 31.50 L 37.50 31.00 Z" fill="#FFFFFF" fill-rule="evenodd" clip-rule="evenodd"/>
</svg>
