<svg xmlns="http://www.w3.org/2000/svg" width="512" height="512" viewBox="0 0 128 128" fill="none">

<defs>
  <linearGradient id="radPurple" x1="0%" y1="0%" x2="100%" y2="100%">
    <stop offset="0%" stop-color="#35109A"/>
    <stop offset="100%" stop-color="#6A35D4"/>
  </linearGradient>
</defs>

<g stroke="url(#radPurple)" stroke-width="5" stroke-linecap="round" stroke-linejoin="round">
  <path d="M56 14h16l3 13c3 1 6 2 9 4l11-7 11 11-7 11c2 3 3 6 4 9l13 3v16l-13 3c-1 3-2 6-4 9l7 11-11 11-11-7c-3 2-6 3-9 4l-3 13H56l-3-13c-3-1-6-2-9-4l-11 7-11-11 7-11c-2-3-3-6-4-9l-13-3V58l13-3c1-3 2-6 4-9l-7-11 11-11 11 7c3-2 6-3 9-4l3-13z"/>
  <circle cx="64" cy="66" r="17"/>
</g>
</svg>