<svg xmlns="http://www.w3.org/2000/svg" width="512" height="512" viewBox="0 0 128 128" fill="none">

<defs>
  <linearGradient id="radPurple" x1="0%" y1="0%" x2="100%" y2="100%">
    <stop offset="0%" stop-color="#4B28D8"/>
    <stop offset="100%" stop-color="#6D45E8"/>
  </linearGradient>
</defs>

<g stroke="url(#radPurple)" stroke-width="5" stroke-linecap="round" stroke-linejoin="round">
  <path d="M68 18c3 10 13 15 16 28 4 17-8 36-24 36S36 69 40 52c3-14 14-21 21-31 0 8 5 13 7 17z"/>
  <path d="M66 53c2 5 8 8 8 15 0 8-6 14-14 14s-14-6-14-14c0-6 4-10 8-14 1 4 4 6 6 8 3-3 5-6 6-9z"/>
</g>
</svg>