<svg xmlns="http://www.w3.org/2000/svg" width="512" height="512" viewBox="0 0 128 128" fill="none">

<defs>
  <linearGradient id="radPurple" x1="0%" y1="0%" x2="100%" y2="100%">
    <stop offset="0%" stop-color="#4B28D8"/>
    <stop offset="100%" stop-color="#6D45E8"/>
  </linearGradient>
</defs>

<g stroke="url(#radPurple)" stroke-width="5" stroke-linecap="round" stroke-linejoin="round">
  <path d="M56 17h16l3 10c3 1 5 2 8 3l9-5 11 11-5 9c1 3 2 5 3 8l10 3v16l-10 3c-1 3-2 5-3 8l5 9-11 11-9-5c-3 1-5 2-8 3l-3 10H56l-3-10c-3-1-5-2-8-3l-9 5-11-11 5-9c-1-3-2-5-3-8l-10-3V56l10-3c1-3 2-5 3-8l-5-9 11-11 9 5c3-1 5-2 8-3l3-10z"/>
  <circle cx="64" cy="64" r="14"/>
</g>
</svg>