<svg xmlns="http://www.w3.org/2000/svg" width="128" height="128" viewBox="0 0 64 64" fill="none">
  <g stroke="#FF6A1A" stroke-width="2.5" stroke-linecap="round" stroke-linejoin="round">
    <circle cx="32" cy="32" r="7"/>
    <path d="M32 18v4M32 42v4M18 32h4M42 32h4M22.1 22.1l2.8 2.8M39.1 39.1l2.8 2.8M41.9 22.1l-2.8 2.8M24.9 39.1l-2.8 2.8"/>
    <path d="M32 12l2.4 4.5 5 .7-3.5 3.4.8 4.9-4.7-2.3-4.7 2.3.8-4.9-3.5-3.4 5-.7L32 12z" opacity="0"/>
    <path d="M32 10l1.8 4.2 4.5.8-3.2 3.2.7 4.5-4-2.2-4 2.2.7-4.5-3.2-3.2 4.5-.8L32 10z" opacity="0"/>
    <path d="M32 18l1.3 3 3.2.6-2.3 2.3.5 3.2-2.7-1.5-2.7 1.5.5-3.2-2.3-2.3 3.2-.6 1.3-3z"/>

  </g>
</svg>