<svg xmlns="http://www.w3.org/2000/svg" width="128" height="128" viewBox="0 0 64 64" fill="none">
  
  <g stroke="#5B35C6" stroke-width="2.4" stroke-linecap="round" stroke-linejoin="round">
    <circle cx="32" cy="32" r="21"/>
    <ellipse cx="32" cy="32" rx="21" ry="8"/>
    <path d="M11 32h42"/>
    <path d="M32 11c5.5 5.5 8.2 12.4 8.2 21S37.5 47.5 32 53"/>
    <path d="M32 11c-5.5 5.5-8.2 12.4-8.2 21S26.5 47.5 32 53"/>
    <path d="M15 22c4.4-3 10.2-4.6 17-4.6S44.6 19 49 22"/>
    <path d="M15 42c4.4 3 10.2 4.6 17 4.6S44.6 45 49 42"/>
  </g>
  <text x="32" y="36" font-family="Arial, Helvetica, sans-serif" font-size="15" font-weight="800" text-anchor="middle" fill="#5B35C6">ISO</text>

</svg>
